<svg width="69" height="69" viewBox="0 0 69 69" fill="none" xmlns="http://www.w3.org/2000/svg">
<path fill-rule="evenodd" clip-rule="evenodd" d="M41.5214 1.06304C42.7941 0.097066 44.5892 -0.354655 46.3545 0.326437C50.1402 1.78692 53.6127 3.92518 56.6407 6.59967C58.0797 7.87065 58.6062 9.73297 58.4499 11.377C58.1898 14.1158 58.6479 16.7601 59.8958 19.0394C61.0056 21.0664 62.665 22.6675 64.6922 23.7931L65.4693 24.1928C66.9003 24.873 68.1696 26.2886 68.4911 28.2437C68.8258 30.2788 69 32.3695 69 34.5002C69 36.631 68.8258 38.722 68.4911 40.7571C68.2017 42.5166 67.1447 43.8391 65.893 44.582L65.4693 44.8079C63.0884 45.9397 61.1444 47.6811 59.8958 49.9614C58.6479 52.2406 58.1898 54.8846 58.4499 57.6232C58.6058 59.2672 58.0797 61.1295 56.6407 62.4005C53.6127 65.0748 50.1402 67.2132 46.3549 68.6734C44.5895 69.3548 42.7945 68.903 41.5218 67.9367C39.4011 66.3273 36.9981 65.4222 34.5 65.4222C32.0019 65.4222 29.5989 66.3273 27.4784 67.9367C26.2057 68.903 24.4105 69.3548 22.645 68.6734C18.8596 67.2132 15.3871 65.0748 12.3589 62.4002C10.92 61.1295 10.3938 59.2672 10.5499 57.6232C10.81 54.8846 10.3516 52.2406 9.10365 49.9614C7.99386 47.9345 6.33473 46.3333 4.30762 45.2077L3.53056 44.8079C2.09967 44.1276 0.830588 42.7121 0.508944 40.7571C0.174122 38.722 0 36.631 0 34.5002C0 32.3691 0.174122 30.2784 0.50891 28.243C0.798389 26.4836 1.85529 25.161 3.1069 24.4183L3.53052 24.1923C5.91137 23.0606 7.85513 21.3193 9.10365 19.039C10.3516 16.7598 10.81 14.1155 10.5499 11.3769C10.3937 9.73301 10.92 7.87083 12.3589 6.59992C15.3871 3.92529 18.8598 1.78695 22.6454 0.326437C24.4108 -0.354691 26.2058 0.097066 27.4785 1.06304C29.5989 2.67253 32.0019 3.57765 34.5 3.57765C36.9981 3.57765 39.4011 2.67253 41.5214 1.06304ZM44.8214 7.49893C41.835 9.56974 38.3133 10.8535 34.5 10.8535C30.6867 10.8535 27.1649 9.56974 24.1787 7.49893C21.7601 8.52802 19.5098 9.90905 17.4853 11.583C17.6914 15.3426 16.9843 19.1975 15.0792 22.6769C13.1737 26.1573 10.3602 28.7309 7.16834 30.4225C6.9916 31.7532 6.9 33.1146 6.9 34.5002C6.9 35.8859 6.9916 37.2469 7.16834 38.578C10.3602 40.2696 13.1737 42.8431 15.0792 46.3235C16.9843 49.8028 17.6914 53.6575 17.4853 57.417C19.5098 59.0911 21.7599 60.4721 24.1784 61.5013C27.1646 59.4302 30.6867 58.1464 34.5 58.1464C38.3133 58.1464 41.8354 59.4302 44.8217 61.5013C47.2398 60.4721 49.4899 59.0911 51.5144 57.4173C51.3084 53.6579 52.0153 49.8028 53.9204 46.3235C55.8262 42.8427 58.6396 40.2692 61.8316 38.5776C62.0086 37.2469 62.1 35.8859 62.1 34.5002C62.1 33.1146 62.0086 31.7536 61.8316 30.4232C58.6396 28.7316 55.8262 26.1579 53.9204 22.6774C52.0153 19.1977 51.3081 15.3426 51.5144 11.5828C49.4899 9.90894 47.2398 8.52799 44.8214 7.49893ZM34.5 19.9482C42.1214 19.9482 48.3 26.4632 48.3 34.4999C48.3 42.5364 42.1214 49.0516 34.5 49.0516C26.8785 49.0516 20.7 42.5364 20.7 34.4999C20.7 26.4632 26.8785 19.9482 34.5 19.9482ZM34.5 27.224C30.6891 27.224 27.6 30.4814 27.6 34.4999C27.6 38.5183 30.6891 41.7757 34.5 41.7757C38.3109 41.7757 41.4 38.5183 41.4 34.4999C41.4 30.4814 38.3109 27.224 34.5 27.224Z" fill="black"/>
</svg>
